<?xml version="1.0" encoding="utf-8"?>
<!-- Generator: Adobe Illustrator 16.0.4, SVG Export Plug-In . SVG Version: 6.00 Build 0)  -->
<!DOCTYPE svg PUBLIC "-//W3C//DTD SVG 1.1//EN" "http://www.w3.org/Graphics/SVG/1.1/DTD/svg11.dtd">
<svg version="1.1" id="Calque_1" xmlns="http://www.w3.org/2000/svg" xmlns:xlink="http://www.w3.org/1999/xlink" x="0px" y="0px"
	 width="95.836px" height="95.532px" viewBox="0 0 95.836 95.532" enable-background="new 0 0 95.836 95.532" xml:space="preserve">
<g>
	<path fill="#54575A" d="M0,0h95.836v94.812v0.721H0V0z"/>
</g>
<g>
	<g>
		<path fill="#FFFFFF" d="M53.229,76.23h2.373v13.455h1.596V74.673h-3.969V76.23z M22.065,42.785h2.616L29.44,23.03l4.65,19.748
			h2.55l-7.197-29.727L22.065,42.785z M67.891,42.769l4.759-19.738l4.649,19.748h2.548l-7.192-29.727L65.85,40.443h-7.301V28.012
			h8.049v-2.335h-8.049v-9.291h8.248v-2.332H56.179V42.78L67.891,42.769z M8.3,59.394V24.08h10.997v18.715h2.389V5.678h-2.389
			v16.039H8.3V5.678H5.904v67.4H8.21l5.469-27.793l9.379,43.726h2.558l-11.83-54.519L8.3,59.394z M63.867,46.706v-2.331H53.254
			v28.688h10.229v-2.335H55.62V58.337h8.052v-2.338H55.62v-9.293H63.867z M78.867,44.398v2.293h4.686v42.997h2.32V46.691h4.665
			v-2.293H78.867z M26.333,44.415h-2.351v28.671h11.551V70.74h-9.2V44.415z M52.291,14.036l-0.113-1.476L46.295,34.56l-5.654-21.127
			l-0.162-0.66l-0.003,0.04l-0.006-0.021l-0.018,0.237l-3.226,29.766h2.407l1.84-17.157l4.057,15.239l0.78,3.083l1.312-5.196
			l3.527-13.241l1.854,17.272h2.401L52.291,14.036z M69.99,82.211c2.076,0,3.761-1.684,3.761-3.758c0-2.075-1.685-3.758-3.761-3.758
			h-1.334c-0.146-0.003-0.295-0.007-0.451-0.007h-8.283l-0.02,1.569h6.027l0.01,4.394l-5.995,0.011l-0.007,1.552h5.992v5.934h-5.958
			v1.541h7.519l0.021-7.478h0.022l5.197,7.472h1.78l-5.062-7.472H69.99z M67.514,80.621v-4.339h2.477
			c1.199,0,2.174,0.973,2.174,2.171c0,1.196-0.975,2.168-2.174,2.168H67.514z M71.625,58.783c3.97,0,7.184-3.216,7.184-7.188
			c0-3.965-3.214-7.181-7.184-7.181l-6.123-0.012l-0.016,28.68h2.333l0.019-14.3l0,0l9.889,14.284h2.623l-9.642-14.25L71.625,58.783
			z M67.847,46.771h3.778c2.659,0,4.825,2.165,4.825,4.825c0,2.663-2.166,4.829-4.825,4.829h-3.778V46.771z M84.719,43.062
			c2.876,0,5.387-2.771,5.387-6.669l0.006-9.188V5.771h-2.307v21.47l0.006,9.152c0,2.804-1.717,4.371-3.092,4.371
			c-1.378,0-3.092-1.567-3.092-4.371l0.027-9.224V5.771H79.35V27.17l-0.019,9.224C79.331,40.291,81.843,43.062,84.719,43.062z
			 M47.295,57.063c1.544-1.315,2.523-3.277,2.523-5.468c0-3.965-3.215-7.181-7.185-7.181l-5.652-0.012l-0.016,28.675h2.333v-0.006
			h4.57c4.356,0,7.887-3.768,7.887-8.42C51.756,61.314,49.932,58.429,47.295,57.063z M39.328,46.771h3.306
			c2.666,0,4.831,2.165,4.831,4.825c0,2.663-2.165,4.829-4.831,4.829h-3.306V46.771z M43.869,70.561h-4.567l0.016-11.777
			l0.043-0.037h4.507c3.051,0,5.534,2.65,5.534,5.906C49.402,67.912,46.92,70.561,43.869,70.561z"/>
	</g>
</g>
</svg>
