<svg id="svg" version="1.1" xmlns="http://www.w3.org/2000/svg" xmlns:xlink="http://www.w3.org/1999/xlink" width="400" height="417.27810650887574" viewBox="0, 0, 400,417.27810650887574"><g id="svgg"><path id="path0" d="M197.848 2.671 C 181.528 23.973,172.774 46.875,173.582 66.154 C 173.960 75.174,175.621 81.758,183.315 104.734 C 193.813 136.084,196.003 150.286,193.058 167.929 L 192.544 171.006 191.157 170.977 C 189.433 170.940,189.452 170.973,189.254 167.665 C 186.851 127.475,169.343 99.915,143.557 95.733 C 119.995 91.912,104.916 114.676,117.990 134.331 C 123.759 143.006,136.373 150.954,144.442 151.001 L 145.334 151.006 143.647 149.414 C 129.858 136.406,142.555 119.401,159.645 127.989 C 171.869 134.132,180.125 149.327,181.442 168.107 C 181.633 170.839,182.268 170.606,176.440 169.940 C 135.168 165.221,107.179 148.336,98.964 123.199 C 95.296 111.978,96.259 99.569,101.396 91.853 C 114.375 72.358,145.543 74.198,167.539 95.757 L 170.937 99.088 170.789 97.969 C 169.856 90.935,162.599 77.121,155.386 68.647 C 135.656 45.471,104.059 41.127,82.439 58.619 C 66.968 71.136,61.790 94.541,69.724 116.086 C 82.160 149.854,116.985 171.493,166.602 176.281 L 168.352 176.450 162.578 178.382 C 140.627 185.729,127.325 195.191,120.965 207.980 C 111.340 227.338,123.460 248.225,146.704 252.337 C 163.006 255.221,178.520 246.746,182.243 232.922 C 182.597 231.606,182.619 231.610,180.873 232.669 C 172.374 237.824,160.526 236.488,153.586 229.593 C 135.056 211.185,155.030 183.475,189.315 180.026 L 190.582 179.898 190.418 180.772 C 188.226 192.455,176.025 208.316,163.585 215.653 C 161.034 217.157,161.052 217.113,162.781 217.595 C 169.234 219.391,177.598 219.235,185.669 217.166 C 187.367 216.731,188.792 216.408,188.834 216.449 C 188.875 216.490,189.212 218.051,189.581 219.918 C 190.832 226.249,192.508 232.084,194.695 237.723 C 196.289 241.834,199.763 249.030,200.104 248.928 C 202.082 248.336,209.129 228.584,210.858 218.786 C 211.085 217.501,211.371 216.452,211.493 216.455 C 211.616 216.458,213.101 216.803,214.793 217.222 C 222.965 219.245,230.989 219.377,237.406 217.593 C 238.878 217.184,239.135 216.938,238.353 216.690 C 238.098 216.609,236.474 215.597,234.744 214.441 C 223.048 206.629,213.893 194.741,210.282 182.675 C 209.438 179.856,209.422 179.903,211.183 180.048 C 236.278 182.114,256.826 200.461,253.281 217.638 C 250.135 232.879,233.132 240.527,219.573 232.800 C 217.505 231.621,217.483 231.646,218.369 234.128 C 228.509 262.528,276.127 257.233,282.047 227.047 C 285.998 206.897,269.368 188.835,237.057 178.184 L 231.866 176.473 236.465 175.959 C 281.370 170.942,312.463 152.910,327.381 123.230 C 348.559 81.097,317.733 38.663,273.964 49.700 C 253.581 54.840,234.138 76.090,229.239 98.580 C 229.108 99.183,229.561 98.820,232.235 96.182 C 246.087 82.514,263.123 76.217,278.664 79.021 C 296.084 82.164,305.820 96.710,303.062 115.473 C 298.679 145.288,267.933 165.661,220.296 170.313 L 218.698 170.469 218.699 169.436 C 218.703 152.236,228.248 134.166,240.592 127.986 C 257.801 119.371,270.393 136.507,256.442 149.558 C 254.649 151.235,254.747 151.301,258.074 150.664 C 266.618 149.030,275.637 143.227,281.219 135.774 C 295.931 116.131,281.005 91.770,256.686 95.734 C 230.667 99.975,214.135 126.033,210.912 167.886 C 210.660 171.162,210.790 170.942,209.075 170.978 L 207.720 171.006 207.536 170.178 C 203.745 153.130,206.004 137.569,217.156 103.905 C 223.092 85.990,224.653 80.646,225.772 74.417 C 229.173 55.489,222.989 33.115,208.214 10.888 C 205.535 6.858,200.431 -0.000,200.118 0.009 C 199.988 0.013,198.967 1.211,197.848 2.671 " stroke="none" fill="#bc9c54" fill-rule="evenodd"></path><path id="path1" d="M268.994 286.776 C 257.217 288.050,250.902 294.426,251.442 304.497 C 251.879 312.660,255.707 316.924,266.432 321.199 C 275.156 324.676,277.615 327.142,276.400 331.198 C 275.049 335.705,265.734 335.539,258.640 330.882 C 256.368 329.390,256.929 329.068,253.373 333.902 C 249.673 338.931,249.829 338.408,251.645 339.703 C 265.387 349.499,284.270 346.888,288.388 334.622 C 290.239 329.106,289.456 322.866,286.399 318.780 C 284.224 315.873,281.236 314.039,273.720 310.997 C 266.162 307.938,264.142 306.318,264.142 303.316 C 264.142 297.472,274.622 295.958,281.943 300.744 C 282.296 300.974,282.630 301.114,282.685 301.055 C 282.741 300.995,284.037 298.876,285.565 296.345 L 288.344 291.743 287.663 291.197 C 284.017 288.276,274.961 286.131,268.994 286.776 M331.274 287.117 C 319.574 288.390,314.973 299.851,321.978 310.275 C 322.714 311.370,323.289 312.281,323.256 312.301 C 314.489 317.400,311.472 321.751,311.483 329.277 C 311.502 342.991,327.652 350.110,342.249 342.840 C 344.173 341.882,344.173 341.882,345.089 343.316 L 345.917 344.613 352.959 344.614 C 356.831 344.615,360.000 344.554,360.000 344.480 C 360.000 344.405,358.615 342.336,356.923 339.882 C 355.231 337.428,353.846 335.331,353.846 335.223 C 353.846 335.115,354.975 333.909,356.354 332.543 C 357.733 331.177,359.553 329.292,360.397 328.354 L 361.931 326.650 358.704 323.029 C 356.929 321.038,355.402 319.381,355.310 319.348 C 355.217 319.315,353.919 320.632,352.423 322.274 C 350.928 323.916,349.319 325.565,348.848 325.938 C 347.800 326.769,348.372 327.381,343.437 320.149 L 339.582 314.500 340.382 313.881 C 354.082 303.298,347.958 285.303,331.274 287.117 M40.947 316.095 L 40.947 344.615 47.335 344.615 L 53.724 344.615 53.785 331.505 L 53.846 318.394 61.538 331.500 L 69.231 344.605 76.416 344.610 C 82.219 344.614,83.578 344.556,83.483 344.307 C 83.418 344.138,80.091 338.858,76.091 332.573 C 72.091 326.289,68.910 321.065,69.024 320.965 C 69.138 320.865,69.911 320.536,70.742 320.232 C 84.218 315.320,84.908 296.122,71.834 289.837 C 67.529 287.768,65.822 287.574,51.900 287.574 L 40.947 287.574 40.947 316.095 M89.467 316.095 L 89.467 344.615 106.746 344.615 L 124.024 344.615 124.024 339.290 L 124.024 333.964 113.136 333.964 L 102.249 333.964 102.249 327.811 L 102.249 321.657 112.544 321.657 L 122.840 321.657 122.840 316.213 L 122.840 310.769 112.544 310.769 L 102.249 310.769 102.249 304.615 L 102.249 298.462 112.544 298.462 L 122.840 298.462 122.840 293.018 L 122.840 287.574 106.154 287.574 L 89.467 287.574 89.467 316.095 M133.018 316.095 L 133.018 344.615 149.467 344.615 L 165.917 344.615 165.917 339.290 L 165.917 333.964 155.858 333.964 L 145.799 333.964 145.799 310.769 L 145.799 287.574 139.408 287.574 L 133.018 287.574 133.018 316.095 M190.690 287.748 C 190.567 287.947,170.664 343.531,170.475 344.201 C 170.367 344.589,170.793 344.615,177.081 344.615 L 183.804 344.615 185.280 339.822 C 186.092 337.186,187.079 333.990,187.473 332.719 L 188.189 330.408 196.748 330.470 L 205.306 330.533 207.442 337.574 L 209.578 344.615 216.589 344.615 L 223.601 344.615 218.169 329.645 C 215.182 321.411,210.535 308.604,207.844 301.183 L 202.951 287.692 196.876 287.629 C 193.535 287.594,190.752 287.648,190.690 287.748 M230.296 316.095 L 230.296 344.615 236.686 344.615 L 243.077 344.615 243.077 316.095 L 243.077 287.574 236.686 287.574 L 230.296 287.574 230.296 316.095 M336.255 296.475 C 338.962 298.496,338.561 302.091,335.254 305.447 C 333.411 307.318,333.515 307.316,332.230 305.503 C 329.811 302.091,329.271 299.905,330.338 297.839 C 331.317 295.943,334.546 295.199,336.255 296.475 M64.432 298.931 C 69.856 300.960,69.897 308.850,64.497 311.278 C 63.426 311.759,62.858 311.819,58.521 311.909 L 53.728 312.007 53.728 305.234 L 53.728 298.462 58.453 298.462 C 62.584 298.462,63.335 298.520,64.432 298.931 M199.661 311.661 C 200.889 315.731,201.893 319.166,201.893 319.294 C 201.893 319.439,199.984 319.527,196.805 319.527 C 193.658 319.527,191.716 319.439,191.716 319.296 C 191.716 319.169,192.718 315.823,193.943 311.861 C 195.168 307.898,196.309 304.034,196.479 303.275 L 196.789 301.893 197.109 303.077 C 197.285 303.728,198.434 307.590,199.661 311.661 M334.024 326.852 C 339.133 334.451,338.843 333.731,337.101 334.503 C 327.919 338.573,319.861 331.123,325.154 323.459 C 325.770 322.567,328.805 320.229,329.327 320.244 C 329.469 320.248,331.583 323.222,334.024 326.852 M23.077 358.812 C 5.731 362.305,-3.755 379.461,1.546 397.753 C 5.302 410.715,17.524 418.404,32.252 417.070 C 39.335 416.428,43.701 414.555,49.035 409.871 C 51.247 407.929,51.355 408.314,47.288 403.659 L 43.691 399.540 43.055 400.066 C 37.092 404.999,34.826 405.976,29.349 405.976 C 18.820 405.976,12.876 398.800,13.322 386.627 C 13.892 371.101,29.219 363.913,40.879 373.704 L 42.580 375.132 46.158 370.963 L 49.735 366.793 48.611 365.652 C 42.739 359.690,32.430 356.929,23.077 358.812 M57.278 387.692 L 57.278 416.331 63.669 416.331 L 70.059 416.331 70.059 404.734 L 70.059 393.136 79.882 393.136 L 89.704 393.136 89.704 404.734 L 89.704 416.331 95.976 416.331 L 102.249 416.331 102.249 387.692 L 102.249 359.053 95.976 359.053 L 89.704 359.053 89.704 370.651 L 89.704 382.249 79.882 382.249 L 70.059 382.249 70.059 370.651 L 70.059 359.053 63.669 359.053 L 57.278 359.053 57.278 387.692 M160.000 364.497 L 160.000 369.941 165.680 369.941 L 171.361 369.941 171.361 393.136 L 171.361 416.331 177.633 416.331 L 183.905 416.331 183.905 393.136 L 183.905 369.941 189.467 369.941 L 195.030 369.941 195.030 364.497 L 195.030 359.053 177.515 359.053 L 160.000 359.053 160.000 364.497 M200.947 387.692 L 200.947 416.331 218.225 416.331 L 235.503 416.331 235.503 410.888 L 235.503 405.444 224.615 405.444 L 213.728 405.444 213.728 399.290 L 213.728 393.136 224.024 393.136 L 234.320 393.136 234.320 387.692 L 234.320 382.249 224.024 382.249 L 213.728 382.249 213.728 376.095 L 213.728 369.941 224.024 369.941 L 234.320 369.941 234.320 364.497 L 234.320 359.053 217.633 359.053 L 200.947 359.053 200.947 387.692 M352.033 359.395 C 352.107 359.587,355.545 365.406,359.673 372.326 C 363.802 379.245,367.176 385.027,367.172 385.175 C 367.168 385.323,363.103 392.339,358.138 400.767 C 353.174 409.194,349.112 416.144,349.112 416.210 C 349.112 416.277,352.287 416.331,356.167 416.331 L 363.222 416.331 368.738 406.568 C 371.772 401.198,374.325 396.727,374.413 396.632 C 374.500 396.537,377.124 400.926,380.244 406.387 L 385.917 416.315 392.986 416.323 C 399.606 416.331,400.048 416.305,399.944 415.917 C 399.861 415.611,387.817 395.470,381.991 385.895 L 381.545 385.162 389.116 372.339 C 393.280 365.286,396.686 359.412,396.686 359.284 C 396.686 359.139,394.074 359.055,389.645 359.059 L 382.604 359.065 378.580 366.410 C 374.711 373.473,374.543 373.735,374.201 373.223 C 374.006 372.930,372.082 369.649,369.925 365.931 L 366.005 359.172 358.952 359.109 C 352.815 359.054,351.917 359.091,352.033 359.395 M118.738 387.532 C 113.183 403.065,108.639 415.901,108.639 416.056 C 108.639 416.270,110.262 416.323,115.304 416.276 L 121.970 416.213 123.360 411.716 C 124.125 409.243,125.123 406.021,125.579 404.556 L 126.407 401.893 134.910 401.893 L 143.414 401.893 144.205 404.438 C 144.640 405.837,145.630 409.085,146.404 411.655 L 147.811 416.327 154.734 416.329 C 159.996 416.331,161.657 416.263,161.657 416.045 C 161.657 415.887,157.050 403.055,151.420 387.528 L 141.183 359.298 135.010 359.294 L 128.836 359.290 118.738 387.532 M251.875 387.278 C 246.373 402.672,241.811 415.508,241.736 415.803 L 241.600 416.339 248.308 416.276 L 255.016 416.213 256.739 410.651 C 257.686 407.592,258.680 404.368,258.946 403.488 L 259.430 401.888 267.970 401.950 L 276.510 402.012 278.673 409.112 L 280.836 416.213 287.755 416.276 C 293.209 416.325,294.675 416.275,294.678 416.039 C 294.680 415.874,290.073 403.039,284.441 387.516 L 274.201 359.292 268.039 359.291 L 261.877 359.290 251.875 387.278 M296.568 377.498 C 296.568 399.137,296.640 399.913,299.109 404.852 C 307.575 421.790,335.408 421.261,343.657 404.007 C 345.904 399.306,346.031 397.851,346.034 376.746 L 346.036 359.290 339.645 359.290 L 333.254 359.290 333.254 377.228 C 333.254 392.511,333.201 395.376,332.894 396.577 C 330.117 407.456,316.130 409.679,310.942 400.067 C 309.349 397.116,309.349 397.124,309.349 377.240 L 309.349 359.290 302.959 359.290 L 296.568 359.290 296.568 377.498 M138.173 384.320 L 140.282 391.243 135.010 391.243 L 129.737 391.243 129.926 390.592 C 130.030 390.234,131.084 386.799,132.270 382.959 C 133.455 379.118,134.555 375.407,134.714 374.712 L 135.003 373.447 135.533 375.422 C 135.825 376.508,137.012 380.512,138.173 384.320 M271.676 385.858 L 273.315 391.243 268.026 391.243 C 263.895 391.243,262.760 391.178,262.844 390.947 C 263.325 389.620,267.473 375.865,267.706 374.824 L 268.004 373.491 269.021 376.982 C 269.580 378.902,270.775 382.896,271.676 385.858 " stroke="none" fill="#040404" fill-rule="evenodd"></path><path id="path2" d="" stroke="none" fill="#8ca030" fill-rule="evenodd"></path><path id="path3" d="" stroke="none" fill="#8ca030" fill-rule="evenodd"></path><path id="path4" d="" stroke="none" fill="#8ca030" fill-rule="evenodd"></path><path id="path5" d="" stroke="none" fill="#8ca030" fill-rule="evenodd"></path></g></svg>